HIERARCHY
ROOT Hips
{
	OFFSET 0.000000 35.082581 0.000000
	CHANNELS 6 Xposition Yposition Zposition Xrotation Yrotation Zrotation 
	JOINT Spine
	{
		OFFSET 0.000000 6.876099 0.125700
		CHANNELS 3 Xrotation Yrotation Zrotation
		JOINT Spine1
		{
			OFFSET 0.000000 5.730043 0.104720
			CHANNELS 3 Xrotation Yrotation Zrotation
			JOINT Spine1_split
			{
				OFFSET 0.000000 5.730043 0.104720
				CHANNELS 3 Xrotation Yrotation Zrotation
				JOINT Spine2
				{
					OFFSET 0.000000 5.730043 0.104720
					CHANNELS 3 Xrotation Yrotation Zrotation
					JOINT Neck
					{
						OFFSET 0.000000 10.314075 0.188496
						CHANNELS 3 Xrotation Yrotation Zrotation
						JOINT Head
						{
							OFFSET 0.000000 7.643700 -2.377400
							CHANNELS 3 Xrotation Yrotation Zrotation
							JOINT HeadTop_End
							{
								OFFSET 0.000000 43.788605 -13.619600
								CHANNELS 3 Xrotation Yrotation Zrotation
								End Site
								{
									OFFSET 0.000000 0.000000 0.000000
								}
							}
						}
					}
					JOINT LeftShoulder
					{
						OFFSET 2.196100 4.412489 0.087492
						CHANNELS 3 Xrotation Yrotation Zrotation
						JOINT LeftShoulder_split
						{
							OFFSET 2.196100 4.412489 0.087492
							CHANNELS 3 Xrotation Yrotation Zrotation
							JOINT LeftArm
							{
								OFFSET 8.771219 -2.981674 -0.026999
								CHANNELS 3 Xrotation Yrotation Zrotation
								JOINT LeftForeArm
								{
									OFFSET 8.512804 0.000000 -0.000000
									CHANNELS 3 Xrotation Yrotation Zrotation
									JOINT LeftHand
									{
										OFFSET 18.484802 0.000000 -0.000000
										CHANNELS 3 Xrotation Yrotation Zrotation
										JOINT LeftHandThumb1
										{
											OFFSET 2.499420 -1.158070 2.653252
											CHANNELS 3 Xrotation Yrotation Zrotation
											JOINT LeftHandThumb2
											{
												OFFSET 2.370079 -1.368366 1.368366
												CHANNELS 3 Xrotation Yrotation Zrotation
												JOINT LeftHandThumb3
												{
													OFFSET 2.676727 -1.545410 1.545409
													CHANNELS 3 Xrotation Yrotation Zrotation
													JOINT LeftHandThumb4
													{
														OFFSET 1.692226 -0.977005 0.977007
														CHANNELS 3 Xrotation Yrotation Zrotation
														End Site
														{
															OFFSET 0.000000 0.000000 0.000000
														}
													}
												}
											}
										}
										JOINT LeftHandIndex1
										{
											OFFSET 7.924831 -0.457527 2.345128
											CHANNELS 3 Xrotation Yrotation Zrotation
											JOINT LeftHandIndex2
											{
												OFFSET 3.643303 0.000000 0.000000
												CHANNELS 3 Xrotation Yrotation Zrotation
												JOINT LeftHandIndex3
												{
													OFFSET 3.810799 0.000000 0.000000
													CHANNELS 3 Xrotation Yrotation Zrotation
													JOINT LeftHandIndex4
													{
														OFFSET 2.403702 0.000000 0.000000
														CHANNELS 3 Xrotation Yrotation Zrotation
														End Site
														{
															OFFSET 0.000000 0.000000 0.000000
														}
													}
												}
											}
										}
										JOINT LeftHandMiddle1
										{
											OFFSET 8.563995 0.000000 -0.000000
											CHANNELS 3 Xrotation Yrotation Zrotation
											JOINT LeftHandMiddle2
											{
												OFFSET 3.861618 0.000000 0.000000
												CHANNELS 3 Xrotation Yrotation Zrotation
												JOINT LeftHandMiddle3
												{
													OFFSET 3.701603 0.000000 0.000000
													CHANNELS 3 Xrotation Yrotation Zrotation
													JOINT LeftHandMiddle4
													{
														OFFSET 2.322544 0.000000 0.000000
														CHANNELS 3 Xrotation Yrotation Zrotation
														End Site
														{
															OFFSET 0.000000 0.000000 0.000000
														}
													}
												}
											}
										}
										JOINT LeftHandRing1
										{
											OFFSET 8.426460 -0.424637 -3.286992
											CHANNELS 3 Xrotation Yrotation Zrotation
											JOINT LeftHandRing2
											{
												OFFSET 3.126408 0.000000 0.000000
												CHANNELS 3 Xrotation Yrotation Zrotation
												JOINT LeftHandRing3
												{
													OFFSET 3.085026 0.000000 0.000000
													CHANNELS 3 Xrotation Yrotation Zrotation
													JOINT LeftHandRing4
													{
														OFFSET 1.644005 0.000000 0.000000
														CHANNELS 3 Xrotation Yrotation Zrotation
														End Site
														{
															OFFSET 0.000000 0.000000 0.000000
														}
													}
												}
											}
										}
									}
								}
							}
						}
					}
					JOINT RightShoulder
					{
						OFFSET -2.196100 4.412496 0.070690
						CHANNELS 3 Xrotation Yrotation Zrotation
						JOINT RightShoulder_split
						{
							OFFSET -2.196100 4.412496 0.070690
							CHANNELS 3 Xrotation Yrotation Zrotation
							JOINT RightArm
							{
								OFFSET -8.771282 -2.981682 -0.094208
								CHANNELS 3 Xrotation Yrotation Zrotation
								JOINT RightForeArm
								{
									OFFSET -8.494598 0.000000 0.000000
									CHANNELS 3 Xrotation Yrotation Zrotation
									JOINT RightHand
									{
										OFFSET -18.483803 0.000000 0.000001
										CHANNELS 3 Xrotation Yrotation Zrotation
										JOINT RightHandThumb1
										{
											OFFSET -2.527351 -1.008072 2.575253
											CHANNELS 3 Xrotation Yrotation Zrotation
											JOINT RightHandThumb2
											{
												OFFSET -2.321518 -1.340328 1.340329
												CHANNELS 3 Xrotation Yrotation Zrotation
												JOINT RightHandThumb3
												{
													OFFSET -2.657753 -1.534454 1.534455
													CHANNELS 3 Xrotation Yrotation Zrotation
													JOINT RightHandThumb4
													{
														OFFSET -1.807510 -1.043568 1.043567
														CHANNELS 3 Xrotation Yrotation Zrotation
														End Site
														{
															OFFSET 0.000000 0.000000 0.000000
														}
													}
												}
											}
										}
										JOINT RightHandIndex1
										{
											OFFSET -8.811420 0.015533 2.887987
											CHANNELS 3 Xrotation Yrotation Zrotation
											JOINT RightHandIndex2
											{
												OFFSET -3.537502 0.000000 0.000000
												CHANNELS 3 Xrotation Yrotation Zrotation
												JOINT RightHandIndex3
												{
													OFFSET -3.356201 0.000000 0.000000
													CHANNELS 3 Xrotation Yrotation Zrotation
													JOINT RightHandIndex4
													{
														OFFSET -1.933098 0.000000 0.000000
														CHANNELS 3 Xrotation Yrotation Zrotation
														End Site
														{
															OFFSET 0.000000 0.000000 0.000000
														}
													}
												}
											}
										}
										JOINT RightHandMiddle1
										{
											OFFSET -8.178135 0.000000 0.000000
											CHANNELS 3 Xrotation Yrotation Zrotation
											JOINT RightHandMiddle2
											{
												OFFSET -3.901302 0.000000 0.000000
												CHANNELS 3 Xrotation Yrotation Zrotation
												JOINT RightHandMiddle3
												{
													OFFSET -3.909599 0.000000 0.000000
													CHANNELS 3 Xrotation Yrotation Zrotation
													JOINT RightHandMiddle4
													{
														OFFSET -2.376003 0.000000 0.000000
														CHANNELS 3 Xrotation Yrotation Zrotation
														End Site
														{
															OFFSET 0.000000 0.000000 0.000000
														}
													}
												}
											}
										}
										JOINT RightHandRing1
										{
											OFFSET -7.559013 0.014137 -2.865403
											CHANNELS 3 Xrotation Yrotation Zrotation
											JOINT RightHandRing2
											{
												OFFSET -3.449306 0.000000 0.000000
												CHANNELS 3 Xrotation Yrotation Zrotation
												JOINT RightHandRing3
												{
													OFFSET -3.362106 0.000000 0.000000
													CHANNELS 3 Xrotation Yrotation Zrotation
													JOINT RightHandRing4
													{
														OFFSET -2.076401 0.000000 0.000000
														CHANNELS 3 Xrotation Yrotation Zrotation
														End Site
														{
															OFFSET 0.000000 0.000000 0.000000
														}
													}
												}
											}
										}
									}
								}
							}
						}
					}
				}
			}
		}
	}
	JOINT LeftUpLeg
	{
		OFFSET 10.205400 -3.823500 0.155100
		CHANNELS 3 Xrotation Yrotation Zrotation
		JOINT LeftLeg
		{
			OFFSET 0.708757 -12.982077 0.567790
			CHANNELS 3 Xrotation Yrotation Zrotation
			JOINT LeftFoot
			{
				OFFSET -0.708756 -10.717838 -2.184338
				CHANNELS 3 Xrotation Yrotation Zrotation
				JOINT LeftToeBase
				{
					OFFSET 0.108149 -7.191104 7.560241
					CHANNELS 3 Xrotation Yrotation Zrotation
					JOINT LeftToe_End
					{
						OFFSET 0.070230 0.081724 4.490308
						CHANNELS 3 Xrotation Yrotation Zrotation
						End Site
						{
							OFFSET 0.000000 0.000000 0.000000
						}
					}
				}
			}
		}
	}
	JOINT RightUpLeg
	{
		OFFSET -10.205400 -3.823500 0.005500
		CHANNELS 3 Xrotation Yrotation Zrotation
		JOINT RightLeg
		{
			OFFSET -0.708756 -12.982134 0.610632
			CHANNELS 3 Xrotation Yrotation Zrotation
			JOINT RightFoot
			{
				OFFSET 0.708754 -10.717769 -1.945823
				CHANNELS 3 Xrotation Yrotation Zrotation
				JOINT RightToeBase
				{
					OFFSET -0.108140 -7.191069 7.372968
					CHANNELS 3 Xrotation Yrotation Zrotation
					JOINT RightToe_End
					{
						OFFSET -0.070227 0.081735 4.479403
						CHANNELS 3 Xrotation Yrotation Zrotation
						End Site
						{
							OFFSET 0.000000 0.000000 0.000000
						}
					}
				}
			}
		}
	}
}
MOTION
Frames: 4
Frame Time: 0.016667
-9.722735 34.335960 -5.898121 12.692602 -130.470028 18.413586 17.505657 0.688811 -1.894346 8.584655 -0.768881 -1.067717 0.000000 0.000000 0.000000 8.613859 -0.684822 -1.055487 6.128093 42.115223 2.848585 7.484614 47.433895 -29.136942 0.000000 -0.000000 -0.000000 -2.314321 -19.181509 9.645792 0.000000 0.000000 0.000000 -51.327352 -47.749508 -40.680614 -278.688766 -149.109464 -272.924797 -39.791630 -8.511757 26.630692 -1.432204 -10.034955 7.701081 0.670860 15.323980 -3.924337 -0.521564 -3.699326 0.174554 -0.000002 -0.000003 -0.000002 13.261856 -0.987897 16.342232 -0.165936 0.299368 -25.445554 -0.143263 0.296732 -26.596197 0.000000 0.000001 -0.000002 8.548234 -0.380218 4.744681 0.222586 0.632711 -24.241694 0.425352 0.188819 -38.696997 -0.000001 0.000000 0.000004 6.164211 3.070775 -10.552878 0.029716 0.292428 -24.465415 0.388929 0.788394 -36.480396 -0.000001 0.000002 0.000000 -5.432977 22.644157 5.004599 0.000000 0.000000 0.000000 -52.631686 7.939685 23.713478 118.664182 44.432696 -113.869287 -26.452923 -2.612699 -41.869473 0.242789 10.291374 -10.807267 1.082981 -16.586933 3.348100 3.358773 -13.364666 -8.312680 0.000002 0.000000 -0.000000 19.476587 11.202823 -14.310237 -0.119543 -0.321880 17.065489 -0.094946 -0.296261 22.286453 0.000000 0.000000 0.000004 4.333512 2.440272 -5.783581 0.339396 -0.451959 25.920226 0.460318 0.162524 38.074780 -0.000000 0.000000 0.000002 -7.040557 -10.715439 4.750278 0.113483 -0.086658 25.185781 0.447913 -0.468550 32.294955 -0.000001 0.000000 -0.000001 -116.525513 -19.946219 3.479198 87.406757 -6.258903 -32.285621 55.335198 -16.786272 -24.013545 -0.342590 0.177200 0.138316 0.000001 -0.000002 0.000000 -20.830533 30.998001 0.706409 31.499483 16.855319 -3.819341 -5.368277 10.842214 7.978585 -1.096026 1.398720 1.174442 0.000000 -0.000002 -0.000000 
-10.136062 34.560226 -6.277284 12.949644 -132.601907 18.811120 17.883974 0.851229 -2.114161 8.889998 -0.672199 -1.209734 0.000000 0.000000 0.000000 8.918204 -0.587176 -1.199350 6.896493 42.518146 2.371651 7.475161 47.851042 -29.457527 -0.000000 -0.000001 -0.000000 -2.111846 -18.783223 11.594737 0.000000 0.000000 0.000000 -57.541345 -46.188714 -44.501964 -278.771821 -147.854280 -272.712433 -38.912418 -6.764442 26.414753 -1.404039 -9.882343 7.759681 0.819652 15.719826 -3.760175 -0.400106 -3.279221 0.388864 -0.000000 -0.000001 -0.000002 13.267461 -0.989199 15.858533 -0.165527 0.299789 -25.929324 -0.143081 0.297218 -27.079953 0.000001 -0.000001 0.000004 8.542921 -0.376231 4.260961 0.223908 0.635169 -24.725442 0.427275 0.190940 -39.180704 0.000000 0.000001 0.000001 6.159685 3.076371 -11.036454 0.030919 0.295192 -24.949178 0.390937 0.790747 -36.964157 -0.000001 -0.000001 0.000001 -4.710929 23.091010 2.504167 0.000000 0.000000 0.000000 -57.009110 7.316085 23.385430 120.495288 44.831354 -115.618355 -25.258994 -3.285248 -43.084970 0.246950 10.259867 -10.819155 1.096944 -16.624489 3.332873 3.362453 -13.389935 -8.323974 -0.000001 -0.000000 0.000001 19.476646 11.202799 -14.266142 -0.119519 -0.321933 17.109803 -0.094773 -0.296210 22.330779 -0.000001 0.000001 0.000002 4.332938 2.440182 -5.739238 0.339601 -0.451894 25.964464 0.460631 0.162697 38.119091 -0.000000 0.000000 -0.000004 -7.040680 -10.715790 4.794427 0.113518 -0.087202 25.230044 0.448348 -0.468589 32.339252 0.000000 0.000000 -0.000001 -118.572385 -19.892497 4.090021 86.162379 -5.865603 -32.593943 55.797116 -17.622716 -25.475976 -0.342634 0.177265 0.138215 -0.000000 -0.000002 -0.000000 -19.028202 32.125682 0.804161 30.599722 17.235149 -3.836607 -5.253739 11.103384 7.402957 -1.096851 1.399031 1.174631 0.000000 -0.000001 -0.000000 
-10.514747 34.783718 -6.647109 13.243070 -134.535575 19.271855 18.240082 1.004577 -2.344123 9.182356 -0.573639 -1.355681 0.000000 0.000000 0.000000 9.209422 -0.487397 -1.347778 7.658613 42.872551 1.900511 7.470979 48.226128 -29.784812 -0.000001 0.000001 -0.000000 -1.708643 -18.296957 14.299378 0.000000 0.000000 0.000000 -63.045194 -44.076645 -47.688644 -278.832747 -146.576775 -272.650141 -36.274206 -4.437899 25.502306 -1.375950 -9.729499 7.818294 0.965312 16.109913 -3.599193 -0.281703 -2.865514 0.599167 -0.000002 -0.000003 -0.000002 13.273234 -0.990525 15.382334 -0.165121 0.300082 -26.405474 -0.142902 0.297768 -27.556145 -0.000000 0.000001 -0.000002 8.537668 -0.372275 3.784782 0.225192 0.637538 -25.201684 0.429227 0.193032 -39.656884 0.000000 -0.000000 -0.000002 6.155150 3.082808 -11.512416 0.032068 0.297850 -25.425319 0.392924 0.793094 -37.440334 0.000000 0.000000 0.000000 -3.961792 23.402304 0.011317 0.000000 0.000000 0.000000 -60.996738 6.507628 22.843715 122.036192 45.207035 -117.083321 -24.195657 -3.692356 -44.353278 0.251427 10.226659 -10.831624 1.112213 -16.666065 3.315878 3.366194 -13.415595 -8.335318 0.000003 -0.000000 0.000001 19.476734 11.202711 -14.217315 -0.119486 -0.321978 17.158791 -0.094587 -0.296218 22.379712 0.000000 0.000000 0.000001 4.332340 2.440076 -5.690259 0.339866 -0.451871 26.013426 0.460919 0.162868 38.168040 -0.000000 -0.000000 -0.000000 -7.040662 -10.716134 4.843294 0.113509 -0.087717 25.279020 0.448828 -0.468685 32.388211 0.000002 0.000000 0.000001 -120.372016 -19.824231 4.562316 84.897086 -5.805402 -32.803879 55.768228 -18.400538 -27.199350 -0.342525 0.177246 0.138250 -0.000000 -0.000001 -0.000001 -17.130874 33.174505 0.713558 29.707177 17.567223 -3.868544 -5.152000 11.325625 6.861089 -1.095978 1.399191 1.174773 -0.000000 -0.000001 0.000000 
-10.885872 35.001526 -7.013192 13.543959 -136.249734 19.791995 18.569799 1.146817 -2.575221 9.456790 -0.479580 -1.500251 0.000000 0.000000 0.000000 9.482784 -0.391724 -1.495371 8.404177 43.182444 1.436496 7.469487 48.560739 -30.108994 -0.000000 0.000002 0.000000 -1.353466 -17.783125 16.989122 0.000000 0.000000 0.000000 -68.037714 -42.061825 -50.427334 -278.809251 -145.498165 -272.534930 -32.375288 -1.747015 24.022506 -1.348062 -9.576560 7.876776 1.107512 16.493339 -3.441755 -0.166625 -2.459199 0.805015 -0.000002 0.000001 -0.000003 13.279093 -0.991807 14.914896 -0.164734 0.300419 -26.872870 -0.142759 0.298264 -28.023552 -0.000001 -0.000002 -0.000000 8.532582 -0.368293 3.317333 0.226389 0.639849 -25.669044 0.431176 0.195033 -40.124319 0.000001 0.000003 -0.000000 6.150682 3.089458 -11.979663 0.033259 0.300445 -25.892731 0.394923 0.795398 -37.907758 0.000000 -0.000003 0.000000 -3.221329 23.818384 -2.377786 0.000000 0.000000 0.000000 -64.631013 5.220868 21.642988 123.514969 45.342009 -118.648473 -23.655944 -3.889349 -45.553202 0.256031 10.192090 -10.844647 1.128784 -16.711229 3.297546 3.369941 -13.441289 -8.346698 0.000001 -0.000000 -0.000000 19.476675 11.202585 -14.164247 -0.119393 -0.322008 17.211844 -0.094463 -0.296228 22.432831 -0.000000 0.000001 0.000004 4.331632 2.439935 -5.637023 0.340113 -0.451857 26.066672 0.461243 0.163019 38.221220 -0.000000 -0.000000 -0.000001 -7.040665 -10.716450 4.896202 0.113571 -0.088286 25.332164 0.449269 -0.468799 32.441363 0.000000 0.000000 -0.000000 -122.005210 -19.609497 4.835866 83.851535 -5.756164 -32.849515 55.980855 -19.195871 -28.917406 -0.342493 0.177213 0.138328 0.000000 0.000001 0.000001 -15.157383 34.128017 0.427867 28.983378 17.838774 -3.924256 -5.200563 11.509671 6.313301 -1.091608 1.399566 1.174812 -0.000000 -0.000002 -0.000000 
